<svg width="25" height="24" viewBox="0 0 25 24" fill="none" xmlns="http://www.w3.org/2000/svg">
<path d="M3.50559 8C3.5 8.41261 3.5 8.87562 3.5 9.4V14.6C3.5 16.8402 3.5 17.9603 3.93597 18.816C4.31947 19.5686 4.93139 20.1805 5.68404 20.564C6.53968 21 7.65979 21 9.9 21H15.1C15.6244 21 16.0874 21 16.5 20.9944M3.50559 8C3.52389 6.6499 3.60205 5.8394 3.93597 5.18404C4.31947 4.43139 4.93139 3.81947 5.68404 3.43597C6.53968 3 7.65979 3 9.9 3H15.1C17.3402 3 18.4603 3 19.316 3.43597C20.0686 3.81947 20.6805 4.43139 21.064 5.18404C21.5 6.03968 21.5 7.15979 21.5 9.4V14.6C21.5 16.1138 21.5 17.1162 21.3655 17.8711M3.50559 8L8.50559 13M16.5 20.9944C17.8501 20.9761 18.6606 20.8979 19.316 20.564C20.0686 20.1805 20.6805 19.5686 21.064 18.816C21.2054 18.5385 21.3009 18.2333 21.3655 17.8711M16.5 20.9944L8.50559 13M8.50559 13L10.2373 11.2683C11.0293 10.4763 11.4253 10.0803 11.882 9.93191C12.2837 9.80139 12.7163 9.80139 13.118 9.93191C13.5747 10.0803 13.9707 10.4763 14.7627 11.2683L21.3655 17.8711M17.51 7H17.49" stroke="white" stroke-linecap="round"/>
</svg>
