<svg width="24" height="24" viewBox="0 0 24 24" fill="none" xmlns="http://www.w3.org/2000/svg">
<path d="M4 5.5C3.72386 5.5 3.5 5.72386 3.5 6C3.5 6.27614 3.72386 6.5 4 6.5V5.5ZM20 6.5C20.2761 6.5 20.5 6.27614 20.5 6C20.5 5.72386 20.2761 5.5 20 5.5V6.5ZM7.5 6C7.5 6.27614 7.72386 6.5 8 6.5C8.27614 6.5 8.5 6.27614 8.5 6H7.5ZM15.5 6C15.5 6.27614 15.7239 6.5 16 6.5C16.2761 6.5 16.5 6.27614 16.5 6H15.5ZM18.8925 18.0357L18.3926 18.0312L18.8925 18.0357ZM18.5 5.99554L18.3926 18.0312L19.3925 18.0402L19.5 6.00446L18.5 5.99554ZM14.8927 21.5H9V22.5H14.8927V21.5ZM4.5 6V18H5.5V6H4.5ZM4 6.5H5V5.5H4V6.5ZM5 6.5H19V5.5H5V6.5ZM19 6.5H20V5.5H19V6.5ZM8.5 5.55556C8.5 3.92176 10.01 2.5 12 2.5V1.5C9.57171 1.5 7.5 3.262 7.5 5.55556H8.5ZM12 2.5C13.99 2.5 15.5 3.92176 15.5 5.55556H16.5C16.5 3.262 14.4283 1.5 12 1.5V2.5ZM7.5 5.55556V6H8.5V5.55556H7.5ZM15.5 5.55556V6H16.5V5.55556H15.5ZM9 21.5C7.067 21.5 5.5 19.933 5.5 18H4.5C4.5 20.4853 6.51472 22.5 9 22.5V21.5ZM18.3926 18.0312C18.3754 19.952 16.8135 21.5 14.8927 21.5V22.5C17.3623 22.5 19.3705 20.5097 19.3925 18.0402L18.3926 18.0312Z" fill="#E9033A"/>
</svg>
