<svg width="24" height="24" viewBox="0 0 24 24" fill="none" xmlns="http://www.w3.org/2000/svg">
<path d="M5.01198 16.9642L5.48632 17.1223H5.48632L5.01198 16.9642ZM5.76117 14.7167L5.28682 14.5585V14.5585L5.76117 14.7167ZM6.53421 13.4658L6.88776 13.8194H6.88776L6.53421 13.4658ZM14.0001 6L13.6465 5.64645L13.6465 5.64645L14.0001 6ZM18 10L18.3536 10.3536L18 10ZM10.5342 17.4658L10.1807 17.1123L10.1807 17.1123L10.5342 17.4658ZM9.2834 18.2389L9.44151 18.7132H9.44151L9.2834 18.2389ZM7.03584 18.9881L7.19395 19.4624H7.19395L7.03584 18.9881ZM10.1242 17.8486L9.82305 17.4494L9.82305 17.4494L10.1242 17.8486ZM9.8091 18.0433L9.58674 17.5955L9.8091 18.0433ZM18.9637 7.11197L18.5157 7.33398V7.33398L18.9637 7.11197ZM18.9637 8.88803L18.5157 8.66603V8.66603L18.9637 8.88803ZM15.112 5.03639L15.334 5.4844V5.4844L15.112 5.03639ZM16.8881 5.03639L16.6661 5.4844V5.4844L16.8881 5.03639ZM5.95676 14.191L6.4046 14.4133L6.4046 14.4133L5.95676 14.191ZM6.15148 13.8759L5.75233 13.5748L5.75233 13.5748L6.15148 13.8759ZM4.63928 18.7547L4.16833 18.9227L4.63928 18.7547ZM5.24531 19.3608L5.07737 19.8317L5.07737 19.8317L5.24531 19.3608ZM13.3536 6.64648C13.1583 6.45122 12.8418 6.45122 12.6465 6.64648C12.4512 6.84175 12.4512 7.15833 12.6465 7.35359L13.3536 6.64648ZM16.6465 11.3536C16.8418 11.5489 17.1583 11.5489 17.3536 11.3536C17.5489 11.1583 17.5489 10.8417 17.3536 10.6465L16.6465 11.3536ZM12 19.5C11.7239 19.5 11.5 19.7239 11.5 20C11.5 20.2761 11.7239 20.5 12 20.5V19.5ZM19 20.5C19.2762 20.5 19.5 20.2761 19.5 20C19.5 19.7239 19.2762 19.5 19 19.5V20.5ZM5.48632 17.1223L6.23551 14.8748L5.28682 14.5585L4.53764 16.8061L5.48632 17.1223ZM6.88776 13.8194L14.3536 6.35355L13.6465 5.64645L6.18066 13.1123L6.88776 13.8194ZM17.6465 9.64645L10.1807 17.1123L10.8878 17.8194L18.3536 10.3536L17.6465 9.64645ZM9.12528 17.7645L6.87772 18.5137L7.19395 19.4624L9.44151 18.7132L9.12528 17.7645ZM10.1807 17.1123C9.972 17.3209 9.9001 17.3913 9.82305 17.4494L10.4253 18.2477C10.5707 18.1381 10.698 18.0092 10.8878 17.8194L10.1807 17.1123ZM9.44151 18.7132C9.69613 18.6284 9.86833 18.5721 10.0314 18.4911L9.58674 17.5955C9.50029 17.6384 9.40522 17.6712 9.12528 17.7645L9.44151 18.7132ZM9.82305 17.4494C9.74897 17.5053 9.66986 17.5542 9.58674 17.5955L10.0314 18.4911C10.17 18.4224 10.3018 18.3409 10.4253 18.2477L9.82305 17.4494ZM17.6465 6.35356C18.2203 6.92735 18.4155 7.13194 18.5157 7.33398L19.4117 6.88996C19.2203 6.50381 18.8703 6.16315 18.3536 5.64645L17.6465 6.35356ZM18.3536 10.3536C18.8703 9.83685 19.2203 9.49619 19.4117 9.11004L18.5157 8.66603C18.4155 8.86806 18.2203 9.07265 17.6465 9.64645L18.3536 10.3536ZM18.5157 7.33398C18.7236 7.75364 18.7236 8.24636 18.5157 8.66603L19.4117 9.11004C19.7583 8.4106 19.7583 7.58941 19.4117 6.88996L18.5157 7.33398ZM14.3536 6.35355C14.9274 5.77976 15.132 5.58452 15.334 5.4844L14.89 4.58838C14.5039 4.77974 14.1632 5.12975 13.6465 5.64645L14.3536 6.35355ZM18.3536 5.64645C17.8369 5.12975 17.4962 4.77974 17.1101 4.58838L16.6661 5.4844C16.8681 5.58452 17.0727 5.77976 17.6465 6.35356L18.3536 5.64645ZM15.334 5.4844C15.7537 5.27644 16.2464 5.27644 16.6661 5.4844L17.1101 4.58838C16.4106 4.24178 15.5895 4.24178 14.89 4.58838L15.334 5.4844ZM6.23551 14.8748C6.32882 14.5948 6.36167 14.4998 6.4046 14.4133L5.50892 13.9686C5.42793 14.1317 5.3717 14.3039 5.28682 14.5585L6.23551 14.8748ZM6.18066 13.1123C5.99088 13.3021 5.862 13.4294 5.75233 13.5748L6.55064 14.177C6.60877 14.1 6.67911 14.028 6.88776 13.8194L6.18066 13.1123ZM6.4046 14.4133C6.44587 14.3302 6.49476 14.2511 6.55064 14.177L5.75233 13.5748C5.65918 13.6982 5.5777 13.8301 5.50892 13.9686L6.4046 14.4133ZM4.53764 16.8061C4.37794 17.2852 4.24671 17.6773 4.17331 17.9897C4.10164 18.2947 4.05968 18.618 4.16833 18.9227L5.11024 18.5868C5.10303 18.5666 5.08457 18.4832 5.14679 18.2184C5.20727 17.9611 5.32032 17.6203 5.48632 17.1223L4.53764 16.8061ZM6.87772 18.5137C6.37972 18.6797 6.03899 18.7928 5.78162 18.8533C5.51682 18.9155 5.43346 18.897 5.41325 18.8898L5.07737 19.8317C5.38205 19.9404 5.70539 19.8984 6.01037 19.8267C6.32276 19.7533 6.71486 19.6221 7.19395 19.4624L6.87772 18.5137ZM4.16833 18.9227C4.31956 19.3468 4.65328 19.6805 5.07737 19.8317L5.41325 18.8898C5.27189 18.8394 5.16064 18.7282 5.11024 18.5868L4.16833 18.9227ZM12.6465 7.35359L16.6465 11.3536L17.3536 10.6465L13.3536 6.64648L12.6465 7.35359ZM12 20.5H19V19.5H12V20.5Z" fill="#A8B2C8"/>
</svg>
