<svg width="49" height="49" viewBox="0 0 49 49" fill="none" xmlns="http://www.w3.org/2000/svg">
<path d="M20.3739 31.5C20.1953 30.8079 19.8346 30.1762 19.3291 29.6708C18.8237 29.1653 18.192 28.8046 17.4999 28.626L5.22988 25.462C5.02054 25.4026 4.8363 25.2765 4.7051 25.1029C4.57391 24.9293 4.50293 24.7176 4.50293 24.5C4.50293 24.2824 4.57391 24.0707 4.7051 23.8971C4.8363 23.7235 5.02054 23.5974 5.22988 23.538L17.4999 20.372C18.1918 20.1936 18.8233 19.8332 19.3287 19.3281C19.8341 18.823 20.195 18.1918 20.3739 17.5L23.5379 5.23001C23.5967 5.01985 23.7226 4.83469 23.8965 4.7028C24.0704 4.5709 24.2826 4.49951 24.5009 4.49951C24.7191 4.49951 24.9314 4.5709 25.1052 4.7028C25.2791 4.83469 25.4051 5.01985 25.4639 5.23001L28.6259 17.5C28.8044 18.1922 29.1652 18.8238 29.6706 19.3292C30.1761 19.8347 30.8077 20.1955 31.4999 20.374L43.7699 23.536C43.9809 23.5942 44.167 23.72 44.2996 23.8942C44.4322 24.0683 44.504 24.2811 44.504 24.5C44.504 24.7189 44.4322 24.9317 44.2996 25.1059C44.167 25.28 43.9809 25.4058 43.7699 25.464L31.4999 28.626C30.8077 28.8046 30.1761 29.1653 29.6706 29.6708C29.1652 30.1762 28.8044 30.8079 28.6259 31.5L25.4619 43.77C25.4031 43.9802 25.2771 44.1653 25.1032 44.2972C24.9294 44.4291 24.7171 44.5005 24.4989 44.5005C24.2806 44.5005 24.0684 44.4291 23.8945 44.2972C23.7206 44.1653 23.5947 43.9802 23.5359 43.77L20.3739 31.5Z" stroke="#A8B2C8" stroke-linecap="round" stroke-linejoin="round"/>
<path d="M40.5 6.5V14.5" stroke="#A8B2C8" stroke-linecap="round" stroke-linejoin="round"/>
<path d="M44.5 10.5H36.5" stroke="#A8B2C8" stroke-linecap="round" stroke-linejoin="round"/>
<path d="M8.5 34.5V38.5" stroke="#A8B2C8" stroke-linecap="round" stroke-linejoin="round"/>
<path d="M10.5 36.5H6.5" stroke="#A8B2C8" stroke-linecap="round" stroke-linejoin="round"/>
</svg>
