<svg width="65" height="64" viewBox="0 0 65 64" fill="none" xmlns="http://www.w3.org/2000/svg">
<path d="M53.8335 53.3333C55.248 53.3333 56.6045 52.7714 57.6047 51.7712C58.6049 50.771 59.1668 49.4145 59.1668 48V21.3333C59.1668 19.9188 58.6049 18.5623 57.6047 17.5621C56.6045 16.5619 55.248 16 53.8335 16H32.7668C31.8749 16.0087 30.995 15.7936 30.2076 15.3743C29.4203 14.9551 28.7507 14.345 28.2602 13.6L26.1002 10.4C25.6145 9.66259 24.9534 9.05728 24.1762 8.63839C23.3989 8.2195 22.5298 8.00015 21.6468 8H11.1668C9.75234 8 8.39579 8.5619 7.39559 9.5621C6.3954 10.5623 5.8335 11.9188 5.8335 13.3333V48C5.8335 49.4145 6.3954 50.771 7.39559 51.7712C8.39579 52.7714 9.75234 53.3333 11.1668 53.3333H53.8335Z" stroke="#E1BF14" stroke-width="2" stroke-linecap="round" stroke-linejoin="round"/>
</svg>
