<svg width="24" height="24" viewBox="0 0 24 24" fill="none" xmlns="http://www.w3.org/2000/svg">
<path d="M8 13.5C7.72386 13.5 7.5 13.7239 7.5 14C7.5 14.2761 7.72386 14.5 8 14.5V13.5ZM16 14.5C16.2761 14.5 16.5 14.2761 16.5 14C16.5 13.7239 16.2761 13.5 16 13.5V14.5ZM8 9.5C7.72386 9.5 7.5 9.72386 7.5 10C7.5 10.2761 7.72386 10.5 8 10.5V9.5ZM16 10.5C16.2761 10.5 16.5 10.2761 16.5 10C16.5 9.72386 16.2761 9.5 16 9.5V10.5ZM8 5.5C7.72386 5.5 7.5 5.72386 7.5 6C7.5 6.27614 7.72386 6.5 8 6.5V5.5ZM16 6.5C16.2761 6.5 16.5 6.27614 16.5 6C16.5 5.72386 16.2761 5.5 16 5.5V6.5ZM8 17.5C7.72386 17.5 7.5 17.7239 7.5 18C7.5 18.2761 7.72386 18.5 8 18.5V17.5ZM12 18.5C12.2761 18.5 12.5 18.2761 12.5 18C12.5 17.7239 12.2761 17.5 12 17.5V18.5ZM5.07805 21.7748L4.84756 22.2185L5.07805 21.7748ZM4.22517 20.9219L3.78147 21.1524L4.22517 20.9219ZM19.7748 20.9219L20.2185 21.1524L19.7748 20.9219ZM18.9219 21.7748L19.1524 22.2185L18.9219 21.7748ZM18.9219 2.22517L19.1524 1.78147L18.9219 2.22517ZM19.7748 3.07805L20.2185 2.84756L19.7748 3.07805ZM5.07805 2.22517L4.84756 1.78147L5.07805 2.22517ZM4.22517 3.07805L3.78147 2.84756L4.22517 3.07805ZM8 14.5H16V13.5H8V14.5ZM8 10.5H16V9.5H8V10.5ZM8 6.5H16V5.5H8V6.5ZM8 18.5H12V17.5H8V18.5ZM7.22 2.5H16.78V1.5H7.22V2.5ZM19.5 5.22V18.78H20.5V5.22H19.5ZM16.78 21.5H7.22V22.5H16.78V21.5ZM4.5 18.78V5.22H3.5V18.78H4.5ZM7.22 21.5C6.64212 21.5 6.23928 21.4996 5.92584 21.4736C5.61839 21.448 5.44201 21.4005 5.30854 21.3311L4.84756 22.2185C5.14757 22.3744 5.47267 22.4394 5.84308 22.4701C6.2075 22.5004 6.6589 22.5 7.22 22.5V21.5ZM3.5 18.78C3.5 19.3411 3.4996 19.7925 3.52986 20.1569C3.56062 20.5273 3.62563 20.8524 3.78147 21.1524L4.66888 20.6915C4.59955 20.558 4.55196 20.3816 4.52643 20.0742C4.5004 19.7607 4.5 19.3579 4.5 18.78H3.5ZM5.30854 21.3311C5.03457 21.1888 4.81119 20.9654 4.66888 20.6915L3.78147 21.1524C4.01866 21.609 4.39096 21.9813 4.84756 22.2185L5.30854 21.3311ZM19.5 18.78C19.5 19.3579 19.4996 19.7607 19.4736 20.0742C19.448 20.3816 19.4005 20.558 19.3311 20.6915L20.2185 21.1524C20.3744 20.8524 20.4394 20.5273 20.4701 20.1569C20.5004 19.7925 20.5 19.3411 20.5 18.78H19.5ZM16.78 22.5C17.3411 22.5 17.7925 22.5004 18.1569 22.4701C18.5273 22.4394 18.8524 22.3744 19.1524 22.2185L18.6915 21.3311C18.558 21.4005 18.3816 21.448 18.0742 21.4736C17.7607 21.4996 17.3579 21.5 16.78 21.5V22.5ZM19.3311 20.6915C19.1888 20.9654 18.9654 21.1888 18.6915 21.3311L19.1524 22.2185C19.609 21.9813 19.9813 21.609 20.2185 21.1524L19.3311 20.6915ZM16.78 2.5C17.3579 2.5 17.7607 2.5004 18.0742 2.52643C18.3816 2.55196 18.558 2.59955 18.6915 2.66888L19.1524 1.78147C18.8524 1.62563 18.5273 1.56062 18.1569 1.52986C17.7925 1.4996 17.3411 1.5 16.78 1.5V2.5ZM20.5 5.22C20.5 4.6589 20.5004 4.2075 20.4701 3.84308C20.4394 3.47267 20.3744 3.14757 20.2185 2.84756L19.3311 3.30854C19.4005 3.44201 19.448 3.61839 19.4736 3.92584C19.4996 4.23928 19.5 4.64212 19.5 5.22H20.5ZM18.6915 2.66888C18.9654 2.81119 19.1888 3.03457 19.3311 3.30854L20.2185 2.84756C19.9813 2.39096 19.609 2.01866 19.1524 1.78147L18.6915 2.66888ZM7.22 1.5C6.6589 1.5 6.2075 1.4996 5.84308 1.52986C5.47267 1.56062 5.14757 1.62563 4.84756 1.78147L5.30854 2.66888C5.44201 2.59955 5.61839 2.55196 5.92584 2.52643C6.23928 2.5004 6.64212 2.5 7.22 2.5V1.5ZM4.5 5.22C4.5 4.64212 4.5004 4.23928 4.52643 3.92584C4.55196 3.61839 4.59955 3.44201 4.66888 3.30854L3.78147 2.84756C3.62563 3.14757 3.56062 3.47267 3.52986 3.84308C3.4996 4.2075 3.5 4.6589 3.5 5.22H4.5ZM4.84756 1.78147C4.39096 2.01866 4.01866 2.39096 3.78147 2.84756L4.66888 3.30854C4.81119 3.03457 5.03457 2.81119 5.30854 2.66888L4.84756 1.78147Z" fill="#E1BF14"/>
</svg>
