<svg width="25" height="24" viewBox="0 0 25 24" fill="none" xmlns="http://www.w3.org/2000/svg">
<path d="M12.5 3H5.5C4.96957 3 4.46086 3.21071 4.08579 3.58579C3.71071 3.96086 3.5 4.46957 3.5 5V19C3.5 19.5304 3.71071 20.0391 4.08579 20.4142C4.46086 20.7893 4.96957 21 5.5 21H19.5C20.0304 21 20.5391 20.7893 20.9142 20.4142C21.2893 20.0391 21.5 19.5304 21.5 19V12" stroke="white" stroke-linecap="round" stroke-linejoin="round"/>
<path d="M18.8751 2.62498C19.2729 2.22716 19.8125 2.00366 20.3751 2.00366C20.9377 2.00366 21.4773 2.22716 21.8751 2.62498C22.2729 3.02281 22.4964 3.56237 22.4964 4.12498C22.4964 4.68759 22.2729 5.22716 21.8751 5.62498L12.8621 14.639C12.6246 14.8762 12.3313 15.0499 12.0091 15.144L9.13609 15.984C9.05004 16.0091 8.95883 16.0106 8.872 15.9883C8.78517 15.9661 8.70592 15.9209 8.64254 15.8575C8.57916 15.7942 8.53398 15.7149 8.51174 15.6281C8.48949 15.5412 8.491 15.45 8.51609 15.364L9.35609 12.491C9.45062 12.169 9.62463 11.876 9.86209 11.639L18.8751 2.62498Z" stroke="white" stroke-linecap="round" stroke-linejoin="round"/>
</svg>
