<svg width="49" height="48" viewBox="0 0 49 48" fill="none" xmlns="http://www.w3.org/2000/svg">
<path d="M23.6032 3.8172C23.9701 3.07395 25.0299 3.07395 25.3967 3.8172L30.733 14.6296C30.8786 14.9247 31.1602 15.1293 31.4859 15.1766L43.4181 16.9105C44.2383 17.0297 44.5658 18.0376 43.9723 18.6162L35.3381 27.0324C35.1024 27.2622 34.9948 27.5932 35.0505 27.9176L37.0887 39.8015C37.2288 40.6184 36.3714 41.2414 35.6378 40.8557L24.9653 35.2449C24.674 35.0917 24.326 35.0917 24.0346 35.2449L13.3622 40.8557C12.6286 41.2414 11.7711 40.6184 11.9112 39.8015L13.9495 27.9176C14.0051 27.5932 13.8976 27.2622 13.6619 27.0324L5.02769 18.6162C4.43417 18.0376 4.76168 17.0297 5.5819 16.9105L17.5141 15.1766C17.8398 15.1293 18.1214 14.9247 18.267 14.6296L23.6032 3.8172Z" stroke="#E1BF14" stroke-width="1.5"/>
</svg>
