<svg width="16" height="16" viewBox="0 0 16 16" fill="none" xmlns="http://www.w3.org/2000/svg">
<path d="M7.70108 1.27236C7.82335 1.02461 8.17664 1.02461 8.29891 1.27236L10.0777 4.87649C10.1262 4.97487 10.2201 5.04306 10.3286 5.05883L14.306 5.63678C14.5794 5.67651 14.6886 6.0125 14.4908 6.20535L11.6127 9.01077C11.5341 9.08735 11.4983 9.19768 11.5168 9.30581L12.1962 13.2671C12.2429 13.5394 11.9571 13.7471 11.7126 13.6185L8.15511 11.7482C8.058 11.6972 7.94199 11.6972 7.84488 11.7482L4.28739 13.6185C4.04285 13.7471 3.75704 13.5394 3.80374 13.2671L4.48316 9.30581C4.50171 9.19768 4.46586 9.08735 4.3873 9.01077L1.50923 6.20535C1.31139 6.0125 1.42056 5.67651 1.69397 5.63678L5.67136 5.05883C5.77993 5.04306 5.87379 4.97487 5.92234 4.87649L7.70108 1.27236Z" fill="#E1BF14"/>
</svg>
