<svg width="24" height="24" viewBox="0 0 24 24" fill="none" xmlns="http://www.w3.org/2000/svg">
<path d="M8.03402 4.93195L7.58681 4.70835L7.58681 4.70835L8.03402 4.93195ZM8.11554 4.76892L7.66833 4.54531V4.54531L8.11554 4.76892ZM15.8845 4.76892L15.4372 4.99252V4.99252L15.8845 4.76892ZM15.966 4.93195L16.4132 4.70835L16.4132 4.70835L15.966 4.93195ZM16.0491 4.99918L15.9853 5.4951L15.9853 5.4951L16.0491 4.99918ZM15.9788 4.95576L15.5637 5.23456L15.5637 5.23458L15.9788 4.95576ZM14.4161 3.10931L14.5791 2.63664L14.5791 2.63664L14.4161 3.10931ZM15.1634 3.57116L15.5132 3.21395V3.21395L15.1634 3.57116ZM8.83663 3.57116L8.48677 3.21395V3.21395L8.83663 3.57116ZM9.58393 3.10931L9.74696 3.58198L9.58393 3.10931ZM7.95095 4.99918L7.88719 4.50327L7.88719 4.50327L7.95095 4.99918ZM8.02121 4.95576L7.60617 4.67694L7.60616 4.67695L8.02121 4.95576ZM5.18404 20.564L5.41103 20.1185L5.18404 20.564ZM3.43597 18.816L3.88148 18.589H3.88148L3.43597 18.816ZM20.564 18.816L20.1185 18.589V18.589L20.564 18.816ZM18.816 20.564L18.589 20.1185H18.589L18.816 20.564ZM20.9344 8.27833L21.4262 8.18812V8.18812L20.9344 8.27833ZM17.7217 5.06564L17.6315 5.55744L17.7217 5.06564ZM3.06564 8.27833L3.55743 8.36854L3.06564 8.27833ZM6.27833 5.06564L6.18812 4.57384L6.27833 5.06564ZM20.5 9.92392V14.6H21.5V9.92392H20.5ZM14.6 20.5H9.4V21.5H14.6V20.5ZM3.5 14.6V9.92392H2.5V14.6H3.5ZM8.48124 5.15556L8.56276 4.99252L7.66833 4.54531L7.58681 4.70835L8.48124 5.15556ZM10.9777 3.5H13.0223V2.5H10.9777V3.5ZM15.4372 4.99252L15.5188 5.15556L16.4132 4.70835L16.3317 4.54531L15.4372 4.99252ZM16.0761 4.5C16.0723 4.5 16.0706 4.5 16.0693 4.49999C16.0681 4.49999 16.0693 4.49998 16.0718 4.50004C16.0771 4.50017 16.0925 4.50066 16.1128 4.50326L15.9853 5.4951C16.031 5.50097 16.0759 5.5 16.0761 5.5V4.5ZM15.5188 5.15555C15.5188 5.15572 15.5381 5.19633 15.5637 5.23456L16.3939 4.67697C16.4053 4.69396 16.4126 4.70756 16.4151 4.71219C16.4162 4.71437 16.4168 4.71548 16.4162 4.7144C16.4157 4.71328 16.4149 4.71174 16.4132 4.70835L15.5188 5.15555ZM16.1128 4.50327C16.2271 4.51796 16.3296 4.58127 16.3938 4.67695L15.5637 5.23458C15.6602 5.37809 15.8138 5.47305 15.9853 5.4951L16.1128 4.50327ZM13.0223 3.5C13.7765 3.5 14.0343 3.50652 14.253 3.58198L14.5791 2.63664C14.1641 2.49348 13.704 2.5 13.0223 2.5V3.5ZM16.3317 4.54531C16.0268 3.93561 15.8269 3.52116 15.5132 3.21395L14.8135 3.92837C14.9788 4.0903 15.1 4.31798 15.4372 4.99252L16.3317 4.54531ZM14.253 3.58198C14.4632 3.65448 14.6547 3.7728 14.8135 3.92837L15.5132 3.21395C15.2485 2.95466 14.9294 2.75747 14.5791 2.63664L14.253 3.58198ZM8.56276 4.99252C8.90003 4.31798 9.02116 4.0903 9.18649 3.92837L8.48677 3.21395C8.17311 3.52116 7.97318 3.93561 7.66833 4.54531L8.56276 4.99252ZM10.9777 2.5C10.296 2.5 9.83594 2.49348 9.42089 2.63664L9.74696 3.58198C9.96573 3.50652 10.2235 3.5 10.9777 3.5V2.5ZM9.18649 3.92837C9.34533 3.7728 9.53677 3.65448 9.74696 3.58198L9.42089 2.63664C9.07058 2.75747 8.75151 2.95466 8.48677 3.21395L9.18649 3.92837ZM7.92392 5.5C7.9241 5.5 7.96903 5.50097 8.01471 5.4951L7.88719 4.50327C7.90749 4.50066 7.92295 4.50017 7.92819 4.50004C7.93066 4.49998 7.9319 4.49999 7.93069 4.49999C7.92944 4.5 7.92771 4.5 7.92392 4.5V5.5ZM7.58681 4.70835C7.58511 4.71174 7.58434 4.71329 7.58377 4.7144C7.58323 4.71548 7.58378 4.71437 7.58494 4.71219C7.5874 4.70755 7.59475 4.69394 7.60617 4.67694L8.43625 5.23458C8.46194 5.19634 8.48116 5.15571 8.48124 5.15555L7.58681 4.70835ZM8.01471 5.4951C8.1862 5.47305 8.33984 5.3781 8.43626 5.23457L7.60616 4.67695C7.67043 4.58127 7.77286 4.51796 7.88719 4.50327L8.01471 5.4951ZM9.4 20.5C8.27164 20.5 7.45545 20.4996 6.81352 20.4472C6.17744 20.3952 5.75662 20.2946 5.41103 20.1185L4.95704 21.0095C5.4671 21.2694 6.03416 21.3868 6.73209 21.4438C7.42418 21.5004 8.28815 21.5 9.4 21.5V20.5ZM2.5 14.6C2.5 15.7119 2.49961 16.5758 2.55616 17.2679C2.61318 17.9658 2.73058 18.5329 2.99047 19.043L3.88148 18.589C3.70539 18.2434 3.60481 17.8226 3.55284 17.1865C3.50039 16.5446 3.5 15.7284 3.5 14.6H2.5ZM5.41103 20.1185C4.75247 19.783 4.21703 19.2475 3.88148 18.589L2.99047 19.043C3.4219 19.8897 4.11031 20.5781 4.95704 21.0095L5.41103 20.1185ZM20.5 14.6C20.5 15.7284 20.4996 16.5446 20.4472 17.1865C20.3952 17.8226 20.2946 18.2434 20.1185 18.589L21.0095 19.043C21.2694 18.5329 21.3868 17.9658 21.4438 17.2679C21.5004 16.5758 21.5 15.7119 21.5 14.6H20.5ZM14.6 21.5C15.7119 21.5 16.5758 21.5004 17.2679 21.4438C17.9658 21.3868 18.5329 21.2694 19.043 21.0095L18.589 20.1185C18.2434 20.2946 17.8226 20.3952 17.1865 20.4472C16.5446 20.4996 15.7284 20.5 14.6 20.5V21.5ZM20.1185 18.589C19.783 19.2475 19.2475 19.783 18.589 20.1185L19.043 21.0095C19.8897 20.5781 20.5781 19.8897 21.0095 19.043L20.1185 18.589ZM21.5 9.92392C21.5 9.08754 21.5021 8.60198 21.4262 8.18812L20.4426 8.36854C20.4979 8.67038 20.5 9.04332 20.5 9.92392H21.5ZM16.0761 5.5C16.9567 5.5 17.3296 5.50207 17.6315 5.55744L17.8119 4.57385C17.398 4.49793 16.9125 4.5 16.0761 4.5V5.5ZM21.4262 8.18812C21.0889 6.34966 19.6503 4.91107 17.8119 4.57384L17.6315 5.55744C19.0614 5.81972 20.1803 6.93863 20.4426 8.36854L21.4262 8.18812ZM3.5 9.92392C3.5 9.04331 3.50207 8.67038 3.55743 8.36854L2.57384 8.18812C2.49793 8.60198 2.5 9.08754 2.5 9.92392H3.5ZM7.92392 4.5C7.08754 4.5 6.60198 4.49793 6.18812 4.57384L6.36854 5.55744C6.67038 5.50207 7.04331 5.5 7.92392 5.5V4.5ZM3.55743 8.36854C3.81972 6.93863 4.93863 5.81972 6.36854 5.55744L6.18812 4.57384C4.34966 4.91107 2.91107 6.34966 2.57384 8.18812L3.55743 8.36854ZM15.5 13C15.5 14.933 13.933 16.5 12 16.5V17.5C14.4853 17.5 16.5 15.4853 16.5 13H15.5ZM12 16.5C10.067 16.5 8.5 14.933 8.5 13H7.5C7.5 15.4853 9.51472 17.5 12 17.5V16.5ZM8.5 13C8.5 11.067 10.067 9.5 12 9.5V8.5C9.51472 8.5 7.5 10.5147 7.5 13H8.5ZM12 9.5C13.933 9.5 15.5 11.067 15.5 13H16.5C16.5 10.5147 14.4853 8.5 12 8.5V9.5Z" fill="white"/>
</svg>
